#N canvas 146 22 1452 931 10;
#X obj 239 307 gemwin;
#X obj 45 -6 gemhead;
#X obj 45 95 t a b;
#X obj 72 122 f;
#X obj 100 122 + 1;
#X obj 30 258 separator;
#X obj 30 624 translateXYZ 0 0 0;
#X obj 57 306 expr $f1;
#X obj 45 71 repeat 200;
#X obj 128 122 % 200;
#X obj 57 283 / 10;
#X msg 211 258 destroy;
#X msg 239 282 reset \, create \, 1;
#X obj 164 477 expr (13*cos($f1)-5*cos(2*$f1)-2*cos(3*$f1)-cos(4*$f1))*$f2
;
#X obj 57 581 expr (16*pow(sin($f1) \, 3))*$f2;
#X floatatom 456 302 5 0 0 0 - - -;
#X obj 262 74 f;
#X obj 290 74 + 1;
#X obj 318 74 % 200;
#X obj 45 18 t a b;
#X obj 30 538 color 1 0 0;
#X obj 263 99 expr 0.5*abs(($f1/200)-0.5);
#X obj 30 652 circle 0.03;
#X obj 740 773 gemhead;
#X obj 740 874 t a b;
#X obj 767 901 f;
#X obj 795 901 + 1;
#X obj 740 926 separator;
#X obj 739 1296 translateXYZ 0 0 0;
#X obj 767 974 expr $f1;
#X obj 740 850 repeat 200;
#X obj 823 901 % 200;
#X obj 767 951 / 10;
#X obj 874 1018 expr (13*cos($f1)-5*cos(2*$f1)-2*cos(3*$f1)-cos(4*$f1))*$f2
;
#X obj 769 1192 expr (16*pow(sin($f1) \, 3))*$f2;
#X floatatom 1166 970 5 0 0 0 - - -;
#X obj 957 853 f;
#X obj 985 853 + 1;
#X obj 740 797 t a b;
#X obj 768 1372 circle 0.03;
#X obj 941 241 gemhead;
#X obj 941 342 t a b;
#X obj 968 369 f;
#X obj 996 369 + 1;
#X obj 941 394 separator;
#X obj 939 655 translateXYZ 0 0 0;
#X obj 968 442 expr $f1;
#X obj 941 318 repeat 200;
#X obj 1024 369 % 200;
#X obj 968 419 / 10;
#X obj 1021 505 expr (13*cos($f1)-5*cos(2*$f1)-2*cos(3*$f1)-cos(4*$f1))*$f2
;
#X obj 966 612 expr (16*pow(sin($f1) \, 3))*$f2;
#X floatatom 1367 438 5 0 0 0 - - -;
#X obj 1158 321 f;
#X obj 1186 321 + 1;
#X obj 941 265 t a b;
#X obj 1159 346 expr 0.5*abs(($f1/200)-0.5);
#X obj 939 683 circle 0.03;
#X obj 45 845 gemhead;
#X obj 45 946 t a b;
#X obj 72 973 f;
#X obj 100 973 + 1;
#X obj 45 998 separator;
#X obj 43 1259 translateXYZ 0 0 0;
#X obj 72 1046 expr $f1;
#X obj 45 922 repeat 200;
#X obj 128 973 % 200;
#X obj 72 1023 / 10;
#X obj 179 1090 expr (13*cos($f1)-5*cos(2*$f1)-2*cos(3*$f1)-cos(4*$f1))*$f2
;
#X obj 70 1216 expr (16*pow(sin($f1) \, 3))*$f2;
#X floatatom 471 1041 5 0 0 0 - - -;
#X obj 262 925 f;
#X obj 290 925 + 1;
#X obj 45 869 t a b;
#X obj 263 950 expr 0.5*abs(($f1/200)-0.5);
#X obj 43 1287 circle 0.03;
#X obj 1505 1256 arduino 1;
#X obj 1502 1301 s \$0-arduino-out;
#X obj 1505 1211 r \$0-arduino;
#X obj 738 1101 color 0 1 0;
#X obj 939 569 color 0 0 1;
#X obj 318 925 % 190;
#X obj 958 878 expr 0.5*abs(($f1/200)-0.5);
#X obj 1013 853 % 180;
#X obj 1214 321 % 170;
#X obj 43 1173 color 1 1 0;
#X obj 259 1365 gemhead;
#X obj 259 1466 t a b;
#X obj 286 1493 f;
#X obj 314 1493 + 1;
#X obj 259 1518 separator;
#X obj 258 1888 translateXYZ 0 0 0;
#X obj 286 1566 expr $f1;
#X obj 259 1442 repeat 200;
#X obj 342 1493 % 200;
#X obj 286 1543 / 10;
#X obj 393 1610 expr (13*cos($f1)-5*cos(2*$f1)-2*cos(3*$f1)-cos(4*$f1))*$f2
;
#X obj 288 1784 expr (16*pow(sin($f1) \, 3))*$f2;
#X floatatom 685 1562 5 0 0 0 - - -;
#X obj 476 1445 f;
#X obj 504 1445 + 1;
#X obj 259 1389 t a b;
#X obj 287 1964 circle 0.03;
#X obj 477 1470 expr 0.5*abs(($f1/200)-0.5);
#X obj 257 1693 color 0 0 0;
#X obj 532 1445 % 160;
#X obj 966 1594 tgl 15 0 empty empty empty 17 7 0 10 -262144 -1 -1
1 1;
#X msg 943 1657 \; pd dsp \$1;
#X floatatom 898 1657 5 0 0 0 - - -;
#X msg 904 1703 open heartbeat.wav;
#X msg 839 1692 start;
#X msg 843 1722 stop;
#X obj 909 1835 dac~ 1 2;
#X obj 824 1774 readsf~ 2;
#X obj 993 1806 bng 15 250 50 0 empty empty empty 17 7 0 10 -262144
-1 -1;
#X obj 908 1453 noise~;
#X obj 1764 2013 *~ 0;
#X obj 1763 2084 bp~ 1000 1;
#X obj 1772 2151 dac~;
#X obj 1837 1925 receive sensor;
#X obj 1833 1992 receive sensor;
#X obj 1834 2042 autoscale 0 2000;
#X obj 971 1416 osc~ 440;
#X obj 1550 1927 notein;
#X obj 1556 1974 stripnote;
#X floatatom 1557 2029 5 0 0 0 - - -;
#X floatatom 1608 2074 5 0 0 0 - - -;
#X floatatom 1663 2128 5 0 0 0 - - -;
#X obj 1595 2171 noteout;
#X msg 1176 1208 close;
#X obj 1144 1333 send \$0-arduino;
#X msg 1194 1260 pinMode 11 pwm;
#X msg 1188 1229 devices;
#X msg 1159 1188 open 2;
#X obj 1240 1414 r \$0-arduino-out;
#X obj 1240 1485 route analog;
#X obj 1240 1514 route 0 1 2 3 4 5 6 7;
#X floatatom 1148 1588 5 0 0 0 - - -;
#X floatatom 1190 1588 5 0 0 0 - - -;
#X floatatom 1233 1588 5 0 0 0 - - -;
#X floatatom 1276 1588 5 0 0 0 - - -;
#X floatatom 1317 1588 5 0 0 0 - - -;
#X floatatom 1356 1588 5 0 0 0 - - -;
#X floatatom 1396 1588 5 0 0 0 - - -;
#X floatatom 1439 1588 5 0 0 0 - - -;
#X floatatom 1482 1588 5 0 0 0 - - -;
#X obj 1240 1456 spigot 0;
#X obj 1285 1435 tgl 15 0 empty empty empty 17 7 0 10 -262144 -1 -1
1 1;
#X text 1307 1435 toggle input on/off;
#X msg 1184 1298 analogIns 0 1;
#X obj 1148 1630 moses 0.5;
#X obj 1141 1677 bng 15 250 50 0 empty empty empty 17 7 0 10 -262144
-1 -1;
#X obj 1199 1676 bng 15 250 50 0 empty empty empty 17 7 0 10 -262144
-1 -1;
#X msg 1138 1722 0;
#X msg 1203 1722 1;
#X obj 1152 1828 dac~;
#X obj 1062 1763 *~ 0;
#X connect 1 0 19 0;
#X connect 2 0 5 0;
#X connect 2 1 3 0;
#X connect 3 0 4 0;
#X connect 3 0 10 0;
#X connect 4 0 9 0;
#X connect 5 0 20 0;
#X connect 6 0 22 0;
#X connect 7 0 13 0;
#X connect 7 0 14 0;
#X connect 8 0 2 0;
#X connect 9 0 3 1;
#X connect 10 0 7 0;
#X connect 11 0 0 0;
#X connect 12 0 0 0;
#X connect 13 0 6 2;
#X connect 14 0 6 1;
#X connect 15 0 13 1;
#X connect 15 0 14 1;
#X connect 16 0 17 0;
#X connect 16 0 21 0;
#X connect 17 0 18 0;
#X connect 18 0 16 1;
#X connect 19 0 8 0;
#X connect 19 1 16 0;
#X connect 20 0 6 0;
#X connect 21 0 15 0;
#X connect 23 0 38 0;
#X connect 24 0 27 0;
#X connect 24 1 25 0;
#X connect 25 0 26 0;
#X connect 25 0 32 0;
#X connect 26 0 31 0;
#X connect 27 0 79 0;
#X connect 28 0 39 0;
#X connect 29 0 33 0;
#X connect 29 0 34 0;
#X connect 30 0 24 0;
#X connect 31 0 25 1;
#X connect 32 0 29 0;
#X connect 33 0 28 2;
#X connect 34 0 28 1;
#X connect 35 0 33 1;
#X connect 35 0 34 1;
#X connect 36 0 37 0;
#X connect 36 0 82 0;
#X connect 37 0 83 0;
#X connect 38 0 30 0;
#X connect 38 1 36 0;
#X connect 40 0 55 0;
#X connect 41 0 44 0;
#X connect 41 1 42 0;
#X connect 42 0 43 0;
#X connect 42 0 49 0;
#X connect 43 0 48 0;
#X connect 44 0 80 0;
#X connect 45 0 57 0;
#X connect 46 0 50 0;
#X connect 46 0 51 0;
#X connect 47 0 41 0;
#X connect 48 0 42 1;
#X connect 49 0 46 0;
#X connect 50 0 45 2;
#X connect 51 0 45 1;
#X connect 52 0 50 1;
#X connect 52 0 51 1;
#X connect 53 0 54 0;
#X connect 53 0 56 0;
#X connect 54 0 84 0;
#X connect 55 0 47 0;
#X connect 55 1 53 0;
#X connect 56 0 52 0;
#X connect 58 0 73 0;
#X connect 59 0 62 0;
#X connect 59 1 60 0;
#X connect 60 0 61 0;
#X connect 60 0 67 0;
#X connect 61 0 66 0;
#X connect 62 0 85 0;
#X connect 63 0 75 0;
#X connect 64 0 68 0;
#X connect 64 0 69 0;
#X connect 65 0 59 0;
#X connect 66 0 60 1;
#X connect 67 0 64 0;
#X connect 68 0 63 2;
#X connect 69 0 63 1;
#X connect 70 0 68 1;
#X connect 70 0 69 1;
#X connect 71 0 72 0;
#X connect 71 0 74 0;
#X connect 72 0 81 0;
#X connect 73 0 65 0;
#X connect 73 1 71 0;
#X connect 74 0 70 0;
#X connect 76 0 77 0;
#X connect 78 0 76 0;
#X connect 79 0 28 0;
#X connect 80 0 45 0;
#X connect 81 0 71 1;
#X connect 82 0 35 0;
#X connect 83 0 36 1;
#X connect 84 0 53 1;
#X connect 85 0 63 0;
#X connect 86 0 101 0;
#X connect 87 0 90 0;
#X connect 87 1 88 0;
#X connect 88 0 89 0;
#X connect 88 0 95 0;
#X connect 89 0 94 0;
#X connect 90 0 104 0;
#X connect 91 0 102 0;
#X connect 92 0 96 0;
#X connect 92 0 97 0;
#X connect 93 0 87 0;
#X connect 94 0 88 1;
#X connect 95 0 92 0;
#X connect 96 0 91 2;
#X connect 97 0 91 1;
#X connect 98 0 96 1;
#X connect 98 0 97 1;
#X connect 99 0 100 0;
#X connect 99 0 103 0;
#X connect 100 0 105 0;
#X connect 101 0 93 0;
#X connect 101 1 99 0;
#X connect 103 0 98 0;
#X connect 104 0 91 0;
#X connect 105 0 99 1;
#X connect 106 0 107 0;
#X connect 106 0 108 0;
#X connect 109 0 113 0;
#X connect 110 0 113 0;
#X connect 111 0 113 0;
#X connect 113 0 112 0;
#X connect 113 1 112 1;
#X connect 113 2 114 0;
#X connect 113 2 156 0;
#X connect 116 0 117 0;
#X connect 117 0 118 0;
#X connect 117 0 118 1;
#X connect 119 0 116 1;
#X connect 120 0 121 0;
#X connect 121 0 117 1;
#X connect 123 0 124 0;
#X connect 123 1 124 1;
#X connect 124 0 125 0;
#X connect 124 1 126 0;
#X connect 126 0 128 0;
#X connect 127 0 128 1;
#X connect 129 0 130 0;
#X connect 131 0 130 0;
#X connect 132 0 130 0;
#X connect 133 0 130 0;
#X connect 134 0 146 0;
#X connect 135 0 136 0;
#X connect 136 0 137 0;
#X connect 136 1 138 0;
#X connect 136 2 139 0;
#X connect 136 3 140 0;
#X connect 136 4 141 0;
#X connect 136 5 142 0;
#X connect 136 6 143 0;
#X connect 136 7 144 0;
#X connect 136 8 145 0;
#X connect 137 0 150 0;
#X connect 146 0 135 0;
#X connect 147 0 146 1;
#X connect 149 0 130 0;
#X connect 150 0 151 0;
#X connect 150 1 152 0;
#X connect 151 0 153 0;
#X connect 152 0 154 0;
#X connect 153 0 156 1;
#X connect 154 0 156 1;
#X connect 156 0 155 0;
#X connect 156 0 155 1;
